<?xml version="1.0" encoding="UTF-8"?>
<!DOCTYPE svg PUBLIC "-//W3C//DTD SVG 1.1//EN" "http://www.w3.org/Graphics/SVG/1.1/DTD/svg11.dtd">
<svg xmlns="http://www.w3.org/2000/svg" version="1.1" width="200px" height="208px" style="shape-rendering:geometricPrecision; text-rendering:geometricPrecision; image-rendering:optimizeQuality; fill-rule:evenodd; clip-rule:evenodd" xmlns:xlink="http://www.w3.org/1999/xlink">
<g><path style="opacity:0.921" fill="#f2fcfe" d="M 199.5,39.5 C 199.5,42.1667 199.5,44.8333 199.5,47.5C 198.146,49.6959 196.146,51.1959 193.5,52C 188.845,52.4992 184.179,52.6658 179.5,52.5C 175.268,93.8162 171.102,135.15 167,176.5C 167.108,189.37 161.275,198.204 149.5,203C 116.167,203.667 82.8333,203.667 49.5,203C 40.4579,199.96 34.9579,193.793 33,184.5C 28.5645,140.478 24.0645,96.4782 19.5,52.5C 14.8215,52.6658 10.1548,52.4992 5.5,52C 2.85408,51.1959 0.854084,49.6959 -0.5,47.5C -0.5,44.8333 -0.5,42.1667 -0.5,39.5C 0.854084,37.3041 2.85408,35.8041 5.5,35C 21.8299,34.5001 38.1633,34.3334 54.5,34.5C 54.3336,26.16 54.5003,17.8267 55,9.5C 55.7065,7.91941 56.5399,6.41941 57.5,5C 71.4097,3.84957 85.4097,3.34957 99.5,3.5C 113.59,3.34957 127.59,3.84957 141.5,5C 142.46,6.41941 143.293,7.91941 144,9.5C 144.5,17.8267 144.666,26.16 144.5,34.5C 160.837,34.3334 177.17,34.5001 193.5,35C 196.146,35.8041 198.146,37.3041 199.5,39.5 Z M 72.5,20.5 C 90.5,20.5 108.5,20.5 126.5,20.5C 126.5,25.1667 126.5,29.8333 126.5,34.5C 108.5,34.5 90.5,34.5 72.5,34.5C 72.5,29.8333 72.5,25.1667 72.5,20.5 Z M 37.5,52.5 C 78.8333,52.5 120.167,52.5 161.5,52.5C 157.598,95.5182 153.432,138.518 149,181.5C 148.215,183.286 147.049,184.786 145.5,186C 114.833,186.667 84.1667,186.667 53.5,186C 51.9512,184.786 50.7845,183.286 50,181.5C 45.5685,138.519 41.4019,95.5189 37.5,52.5 Z"/></g>
<g><path style="opacity:0.91" fill="#f2fdfe" d="M 61.5,66.5 C 66.6321,66.4769 70.1321,68.8103 72,73.5C 74.7439,103.516 77.5772,133.516 80.5,163.5C 77.8089,172.1 72.6422,174.1 65,169.5C 62.9554,165.097 61.9554,160.43 62,155.5C 59.6495,128.811 57.1495,102.145 54.5,75.5C 55.1878,71.0828 57.5211,68.0828 61.5,66.5 Z"/></g>
<g><path style="opacity:0.882" fill="#f2fdfe" d="M 97.5,66.5 C 102.632,66.4769 106.132,68.8103 108,73.5C 108.667,104.167 108.667,134.833 108,165.5C 102.333,174.833 96.6667,174.833 91,165.5C 90.3333,134.833 90.3333,104.167 91,73.5C 92.0183,69.9853 94.1849,67.652 97.5,66.5 Z"/></g>
<g><path style="opacity:0.909" fill="#f2fdfe" d="M 133.5,66.5 C 140.007,66.4153 143.674,69.5819 144.5,76C 141.529,105.816 138.696,135.649 136,165.5C 132.807,172.348 127.974,173.848 121.5,170C 120.095,168.023 119.095,165.857 118.5,163.5C 121.543,133.528 124.376,103.528 127,73.5C 128.018,69.9853 130.185,67.652 133.5,66.5 Z"/></g>
</svg>
