<?xml version="1.0" standalone="no"?>
<!DOCTYPE svg PUBLIC "-//W3C//DTD SVG 20010904//EN"
 "http://www.w3.org/TR/2001/REC-SVG-20010904/DTD/svg10.dtd">
<svg version="1.0" xmlns="http://www.w3.org/2000/svg"
 width="200.000000pt" height="208.000000pt" viewBox="0 0 200.000000 208.000000"
 preserveAspectRatio="xMidYMid meet">

<g transform="translate(0.000000,208.000000) scale(0.100000,-0.100000)"
fill="#000000" stroke="none">
<path d="M604 2028 c-36 -17 -44 -52 -44 -183 l0 -125 -245 0 c-160 0 -253 -4
-269 -11 -35 -16 -52 -61 -37 -98 16 -38 49 -51 131 -51 39 0 70 -3 70 -6 0
-3 29 -301 65 -662 43 -431 71 -672 82 -701 22 -60 83 -117 146 -136 75 -22
919 -22 994 0 63 19 124 76 146 136 11 29 39 270 82 701 36 361 65 659 65 662
0 3 31 6 70 6 82 0 115 13 131 51 15 37 -2 82 -37 98 -16 7 -109 11 -269 11
l-245 0 0 125 c0 134 -8 166 -47 184 -32 15 -759 14 -789 -1z m676 -228 l0
-80 -280 0 -280 0 0 80 0 80 280 0 280 0 0 -80z m350 -257 c0 -10 -29 -306
-64 -658 l-65 -640 -26 -22 -26 -23 -449 0 -449 0 -26 23 -26 22 -65 640 c-35
352 -64 648 -64 658 0 16 37 17 630 17 593 0 630 -1 630 -17z"/>
<path d="M604 1388 c-46 -22 -46 -32 -3 -506 22 -246 45 -459 50 -474 15 -36
60 -54 98 -39 54 23 54 24 10 509 -22 246 -45 459 -50 473 -10 25 -46 50 -72
48 -7 0 -22 -5 -33 -11z"/>
<path d="M964 1388 c-12 -5 -27 -21 -33 -34 -16 -35 -15 -913 0 -948 26 -55
112 -55 138 0 15 35 16 913 0 947 -11 24 -48 48 -72 46 -7 0 -22 -5 -33 -11z"/>
<path d="M1323 1388 c-12 -6 -26 -22 -32 -37 -6 -14 -28 -227 -50 -473 -44
-485 -44 -486 10 -509 38 -15 83 3 98 39 5 15 28 228 50 474 44 479 43 485 -6
507 -29 13 -41 13 -70 -1z"/>
</g>
</svg>
