<?xml version="1.0" standalone="no"?>
<!DOCTYPE svg PUBLIC "-//W3C//DTD SVG 20010904//EN"
 "http://www.w3.org/TR/2001/REC-SVG-20010904/DTD/svg10.dtd">
<svg version="1.0" xmlns="http://www.w3.org/2000/svg"
 width="200.000000pt" height="208.000000pt" viewBox="0 0 200.000000 208.000000"
 preserveAspectRatio="xMidYMid meet">

<g transform="translate(0.000000,208.000000) scale(0.100000,-0.100000)"
fill="#000000" stroke="none">
<path d="M947 1986 c-21 -8 -48 -22 -59 -33 -11 -10 -74 -125 -139 -255 -66
-131 -123 -238 -129 -238 -49 0 -502 -75 -528 -87 -69 -33 -108 -135 -79 -205
9 -22 87 -106 204 -221 l189 -187 -44 -252 c-32 -180 -43 -264 -38 -291 9 -51
67 -114 116 -127 68 -18 84 -13 382 147 l177 95 228 -120 c125 -66 242 -123
260 -126 76 -17 174 50 189 129 4 23 -8 120 -38 290 l-44 256 189 186 c117
115 195 199 204 221 29 70 -10 172 -79 205 -26 12 -479 87 -528 87 -6 0 -63
107 -129 238 -65 130 -128 245 -139 255 -22 20 -86 46 -112 46 -8 0 -32 -6
-53 -13z"/>
</g>
</svg>
