<?xml version="1.0" standalone="no"?>
<!DOCTYPE svg PUBLIC "-//W3C//DTD SVG 20010904//EN"
 "http://www.w3.org/TR/2001/REC-SVG-20010904/DTD/svg10.dtd">
<svg version="1.0" xmlns="http://www.w3.org/2000/svg"
 width="200.000000pt" height="208.000000pt" viewBox="0 0 200.000000 208.000000"
 preserveAspectRatio="xMidYMid meet">

<g transform="translate(0.000000,208.000000) scale(0.100000,-0.100000)"
fill="#000000" stroke="none">
<path d="M947 1986 c-21 -8 -48 -22 -59 -33 -11 -10 -74 -125 -139 -255 -66
-131 -123 -238 -129 -238 -49 0 -502 -75 -528 -87 -69 -33 -108 -135 -79 -205
9 -22 87 -106 204 -221 l189 -186 -44 -256 c-30 -170 -42 -267 -38 -290 10
-49 68 -112 117 -125 59 -16 98 -1 341 127 l218 114 227 -119 c126 -66 242
-123 260 -126 76 -17 174 50 189 129 4 23 -8 120 -38 290 l-44 256 189 186
c117 115 195 199 204 221 29 70 -10 172 -79 205 -26 12 -479 87 -528 87 -6 0
-63 107 -129 238 -65 130 -128 245 -139 255 -22 20 -86 46 -112 46 -8 0 -32
-6 -53 -13z m175 -390 c93 -187 124 -240 153 -261 31 -25 58 -31 262 -61 126
-19 237 -34 248 -34 55 -1 42 -19 -144 -205 -156 -156 -191 -197 -200 -230 -9
-34 -4 -81 33 -295 24 -140 43 -257 41 -259 -2 -2 -104 50 -227 115 -303 160
-273 160 -576 0 -123 -65 -225 -117 -227 -115 -2 2 17 119 41 259 37 214 42
261 33 295 -9 33 -44 74 -200 229 -103 105 -187 192 -185 194 3 2 120 21 260
42 232 34 259 40 291 65 29 21 60 74 153 261 64 129 119 234 122 234 3 0 58
-105 122 -234z"/>
</g>
</svg>
