<?xml version="1.0" encoding="UTF-8"?>
<!DOCTYPE svg PUBLIC "-//W3C//DTD SVG 1.1//EN" "http://www.w3.org/Graphics/SVG/1.1/DTD/svg11.dtd">
<svg xmlns="http://www.w3.org/2000/svg" version="1.1" width="449px" height="456px" style="shape-rendering:geometricPrecision; text-rendering:geometricPrecision; image-rendering:optimizeQuality; fill-rule:evenodd; clip-rule:evenodd" xmlns:xlink="http://www.w3.org/1999/xlink">
<g><path style="opacity:0.969" fill="#f2fdfe" d="M 65.5,13.5 C 133.167,13.3333 200.834,13.5 268.5,14C 282.355,18.531 287.855,28.031 285,42.5C 281.977,50.1915 276.477,55.0248 268.5,57C 201.5,57.3333 134.5,57.6667 67.5,58C 59.6667,60.5 54.5,65.6667 52,73.5C 51.3333,176.167 51.3333,278.833 52,381.5C 54.5,389.333 59.6667,394.5 67.5,397C 170.167,397.667 272.833,397.667 375.5,397C 383.333,394.5 388.5,389.333 391,381.5C 391.333,314.5 391.667,247.5 392,180.5C 396.531,166.645 406.031,161.145 420.5,164C 428.192,167.023 433.025,172.523 435,180.5C 435.667,248.167 435.667,315.833 435,383.5C 429.806,416.694 410.639,435.861 377.5,441C 273.5,441.667 169.5,441.667 65.5,441C 32.3058,435.806 13.1392,416.639 8,383.5C 7.33333,279.5 7.33333,175.5 8,71.5C 13.3455,38.3216 32.5122,18.9883 65.5,13.5 Z"/></g>
<g><path style="opacity:0.963" fill="#f2fdfe" d="M 345.5,13.5 C 369.502,13.3334 393.502,13.5 417.5,14C 427.333,15.8333 433.167,21.6667 435,31.5C 435.667,55.5 435.667,79.5 435,103.5C 429.068,120.213 417.901,125.046 401.5,118C 397.61,115.404 394.777,111.904 393,107.5C 391.861,101.564 391.195,95.5639 391,89.5C 339.5,141 288,192.5 236.5,244C 225.603,251.658 215.103,251.158 205,242.5C 197.667,232.5 197.667,222.5 205,212.5C 256.5,161 308,109.5 359.5,58C 350.426,58.7682 342.092,56.7682 334.5,52C 325.167,41 325.167,30 334.5,19C 337.99,16.588 341.657,14.7547 345.5,13.5 Z"/></g>
</svg>
