<?xml version="1.0" standalone="no"?>
<!DOCTYPE svg PUBLIC "-//W3C//DTD SVG 20010904//EN"
 "http://www.w3.org/TR/2001/REC-SVG-20010904/DTD/svg10.dtd">
<svg version="1.0" xmlns="http://www.w3.org/2000/svg"
 width="200.000000pt" height="208.000000pt" viewBox="0 0 200.000000 208.000000"
 preserveAspectRatio="xMidYMid meet">

<g transform="translate(0.000000,208.000000) scale(0.100000,-0.100000)"
fill="#000000" stroke="none">
<path d="M272 2000 c-105 -22 -195 -102 -224 -200 -19 -66 -19 -1454 0 -1520
22 -76 72 -134 149 -172 l68 -33 730 0 c599 0 737 3 770 14 58 20 118 64 147
108 53 80 53 82 53 596 l0 479 -33 29 c-42 38 -82 38 -124 0 l-33 -29 -3 -475
-3 -475 -24 -26 -24 -26 -721 0 -721 0 -24 26 -25 27 0 716 c0 690 1 717 20
741 l19 25 481 5 482 5 29 33 c38 42 38 82 0 124 l-29 33 -459 2 c-252 0 -477
-3 -501 -7z"/>
<path d="M1542 1995 c-76 -33 -73 -139 4 -171 21 -9 48 -14 61 -11 13 2 23 1
23 -2 0 -3 -158 -164 -351 -356 -197 -197 -357 -364 -365 -382 -32 -74 45
-151 119 -119 18 8 185 168 382 365 192 193 353 351 356 351 3 0 4 -10 2 -23
-8 -41 22 -96 62 -112 31 -14 39 -14 70 0 55 22 65 58 65 230 0 236 -9 245
-247 245 -106 -1 -157 -5 -181 -15z"/>
</g>
</svg>
